<svg width="48" height="44" viewBox="0 0 48 44" fill="none" xmlns="http://www.w3.org/2000/svg">
<rect x="0.5" y="0.5" width="47" height="43" rx="21.5" fill="#FD007D"/>
<rect x="0.5" y="0.5" width="47" height="43" rx="21.5" stroke="white"/>
<path d="M35.2201 22.0354L13.8832 10.8515C13.7965 10.8061 13.697 10.7955 13.6027 10.8195C13.3858 10.8755 13.2507 11.1048 13.3042 11.3341L15.503 20.7261C15.5361 20.8674 15.6356 20.9821 15.7682 21.0274L19.5357 22.3794L15.7708 23.7314C15.6381 23.7794 15.5387 23.8914 15.5081 24.0327L13.3042 33.438C13.2813 33.5366 13.2915 33.6406 13.3348 33.7286C13.4343 33.9393 13.6792 34.0246 13.8832 33.9206L35.2201 22.8007C35.2992 22.7607 35.363 22.6914 35.4038 22.6114C35.5033 22.398 35.4217 22.142 35.2201 22.0354ZM15.8192 30.766L17.1023 25.2834L24.632 22.582C24.6907 22.5607 24.7392 22.5127 24.7596 22.4487C24.7953 22.3367 24.7392 22.2167 24.632 22.1767L17.1023 19.4781L15.8243 14.0168L31.843 22.414L15.8192 30.766Z" fill="white"/>
</svg>
