<svg width="32" height="30" viewBox="0 0 32 30" fill="none" xmlns="http://www.w3.org/2000/svg">
<path d="M31.405 12.2968C31.5918 13.3035 31.6848 14.3236 31.683 15.3454C31.683 19.909 29.943 23.7677 26.915 26.3795H26.919C24.271 28.6725 20.631 30 16.315 30C12.0715 30 8.00188 28.4197 5.00129 25.6067C2.00071 22.7938 0.315002 18.9786 0.315002 15.0004C0.315002 11.0223 2.00071 7.20712 5.00129 4.39416C8.00188 1.5812 12.0715 0.000896228 16.315 0.000896228C20.2865 -0.0405662 24.1215 1.35801 27.019 3.90453L22.451 8.1869C20.7994 6.71179 18.5959 5.90381 16.315 5.93697C12.141 5.93697 8.595 8.57689 7.331 12.1318C6.66199 13.9947 6.66199 16.0118 7.331 17.8747H7.337C8.607 21.424 12.147 24.0639 16.321 24.0639C18.477 24.0639 20.329 23.5464 21.765 22.6315H21.759C22.593 22.1138 23.3063 21.443 23.856 20.6596C24.4057 19.8761 24.7802 18.9964 24.957 18.0735H16.315V12.2987L31.405 12.2968Z" fill="white"/>
</svg>
