<svg width="32" height="30" viewBox="0 0 32 30" fill="none" xmlns="http://www.w3.org/2000/svg">
<path d="M16.0001 0C11.6581 0 11.1121 0.01875 9.40606 0.09C7.70006 0.165 6.53806 0.41625 5.52006 0.7875C4.45175 1.16311 3.48434 1.75387 2.68606 2.51813C1.87086 3.26651 1.24071 4.17346 0.840061 5.175C0.444061 6.1275 0.174061 7.21875 0.096061 8.8125C0.020061 10.4156 6.10352e-05 10.9256 6.10352e-05 15.0019C6.10352e-05 19.0744 0.020061 19.5844 0.096061 21.1838C0.176061 22.7812 0.444061 23.8706 0.840061 24.825C1.25006 25.8112 1.79606 26.6475 2.68606 27.4819C3.57406 28.3162 4.46606 28.83 5.51806 29.2125C6.53806 29.5837 7.69806 29.8369 9.40206 29.91C11.1101 29.9812 11.6541 30 16.0001 30C20.3461 30 20.8881 29.9812 22.5961 29.91C24.2981 29.835 25.4641 29.5837 26.4821 29.2125C27.5497 28.8366 28.5164 28.2459 29.3141 27.4819C30.2041 26.6475 30.7501 25.8112 31.1601 24.825C31.5541 23.8706 31.8241 22.7812 31.9041 21.1838C31.9801 19.5844 32.0001 19.0744 32.0001 15C32.0001 10.9256 31.9801 10.4156 31.9041 8.81437C31.8241 7.21875 31.5541 6.1275 31.1601 5.175C30.7594 4.17346 30.1293 3.26651 29.3141 2.51813C28.5158 1.75387 27.5484 1.16311 26.4801 0.7875C25.4601 0.41625 24.2961 0.163125 22.5941 0.09C20.8861 0.01875 20.3441 0 15.9961 0H16.0001ZM14.5661 2.70375H16.0021C20.2741 2.70375 20.7801 2.71688 22.4661 2.79C24.0261 2.85563 24.8741 3.10125 25.4381 3.30562C26.1841 3.5775 26.7181 3.90375 27.2781 4.42875C27.8381 4.95375 28.1841 5.4525 28.4741 6.15375C28.6941 6.68062 28.9541 7.47563 29.0241 8.93813C29.1021 10.5188 29.1181 10.9931 29.1181 14.9963C29.1181 18.9994 29.1021 19.4756 29.0241 21.0562C28.9541 22.5187 28.6921 23.3119 28.4741 23.8406C28.2157 24.4911 27.8065 25.0796 27.2761 25.5637C26.7161 26.0887 26.1841 26.4131 25.4361 26.685C24.8761 26.8913 24.0281 27.135 22.4661 27.2025C20.7801 27.2738 20.2741 27.2906 16.0021 27.2906C11.7301 27.2906 11.2221 27.2738 9.53606 27.2025C7.97606 27.135 7.13006 26.8913 6.56606 26.685C5.87173 26.4436 5.24326 26.0606 4.72606 25.5637C4.19461 25.0793 3.78472 24.49 3.52606 23.8387C3.30806 23.3119 3.04606 22.5169 2.97606 21.0544C2.90006 19.4738 2.88406 18.9994 2.88406 14.9925C2.88406 10.9856 2.90006 10.515 2.97606 8.93437C3.04806 7.47187 3.30806 6.67688 3.52806 6.14813C3.81806 5.44875 4.16606 4.94812 4.72606 4.42312C5.28606 3.89812 5.81806 3.57375 6.56606 3.30188C7.13006 3.09563 7.97606 2.85188 9.53606 2.78437C11.0121 2.72062 11.5841 2.70188 14.5661 2.7V2.70375ZM24.5421 5.19375C24.2899 5.19375 24.0403 5.24031 23.8073 5.33077C23.5744 5.42123 23.3627 5.55381 23.1844 5.72096C23.0061 5.8881 22.8647 6.08653 22.7682 6.30492C22.6717 6.52331 22.6221 6.75737 22.6221 6.99375C22.6221 7.23013 22.6717 7.46419 22.7682 7.68258C22.8647 7.90097 23.0061 8.0994 23.1844 8.26654C23.3627 8.43369 23.5744 8.56627 23.8073 8.65673C24.0403 8.74719 24.2899 8.79375 24.5421 8.79375C25.0513 8.79375 25.5396 8.60411 25.8997 8.26654C26.2598 7.92898 26.4621 7.47114 26.4621 6.99375C26.4621 6.51636 26.2598 6.05852 25.8997 5.72096C25.5396 5.38339 25.0513 5.19375 24.5421 5.19375ZM16.0021 7.2975C14.9122 7.28156 13.8298 7.46904 12.818 7.84901C11.8062 8.22899 10.8851 8.79388 10.1084 9.51079C9.33163 10.2277 8.71479 11.0823 8.29374 12.0249C7.8727 12.9674 7.65586 13.9791 7.65586 15.0009C7.65586 16.0228 7.8727 17.0345 8.29374 17.977C8.71479 18.9196 9.33163 19.7742 10.1084 20.4911C10.8851 21.208 11.8062 21.7729 12.818 22.1529C13.8298 22.5328 14.9122 22.7203 16.0021 22.7044C18.1591 22.6728 20.2165 21.8473 21.73 20.4061C23.2435 18.9649 24.0919 17.0234 24.0919 15.0009C24.0919 12.9784 23.2435 11.037 21.73 9.59578C20.2165 8.15454 18.1591 7.32905 16.0021 7.2975ZM16.0021 9.99938C16.7025 9.99938 17.3961 10.1287 18.0433 10.38C18.6904 10.6313 19.2785 10.9997 19.7738 11.464C20.2691 11.9284 20.662 12.4796 20.93 13.0863C21.1981 13.693 21.3361 14.3433 21.3361 15C21.3361 15.6567 21.1981 16.307 20.93 16.9137C20.662 17.5204 20.2691 18.0716 19.7738 18.536C19.2785 19.0003 18.6904 19.3687 18.0433 19.62C17.3961 19.8713 16.7025 20.0006 16.0021 20.0006C14.5874 20.0006 13.2307 19.4738 12.2304 18.536C11.23 17.5982 10.6681 16.3262 10.6681 15C10.6681 13.6738 11.23 12.4018 12.2304 11.464C13.2307 10.5262 14.5874 9.99938 16.0021 9.99938Z" fill="white"/>
</svg>
