<svg width="32" height="30" viewBox="0 0 32 30" fill="none" xmlns="http://www.w3.org/2000/svg">
<path d="M6.10352e-05 2.14875C6.10352e-05 0.961875 1.05206 0 2.35006 0H29.6501C30.9481 0 32.0001 0.961875 32.0001 2.14875V27.8512C32.0001 29.0381 30.9481 30 29.6501 30H2.35006C1.05206 30 6.10352e-05 29.0381 6.10352e-05 27.8512V2.14875ZM9.88606 25.1138V11.5669H5.08406V25.1138H9.88606ZM7.48606 9.71625C9.16006 9.71625 10.2021 8.6775 10.2021 7.37625C10.1721 6.04688 9.16206 5.03625 7.51806 5.03625C5.87406 5.03625 4.80006 6.04875 4.80006 7.37625C4.80006 8.6775 5.84206 9.71625 7.45406 9.71625H7.48606ZM17.3021 25.1138V17.5481C17.3021 17.1431 17.3341 16.7381 17.4621 16.4494C17.8081 15.6412 18.5981 14.8031 19.9261 14.8031C21.6641 14.8031 22.3581 16.0444 22.3581 17.8669V25.1138H27.1601V17.3438C27.1601 13.1812 24.7921 11.2463 21.6321 11.2463C19.0841 11.2463 17.9421 12.5588 17.3021 13.4831V13.53H17.2701L17.3021 13.4831V11.5669H12.5021C12.5621 12.8381 12.5021 25.1138 12.5021 25.1138H17.3021Z" fill="white"/>
</svg>
