<svg width="28" height="30" viewBox="0 0 28 30" fill="none" xmlns="http://www.w3.org/2000/svg">
<path d="M16.0001 0H19.9601C20.2481 1.34062 21.0401 3.03187 22.4301 4.71C23.7901 6.35437 25.5941 7.5 28.0001 7.5V11.25C24.4941 11.25 21.8601 9.72375 20.0001 7.82062V20.625C20.0001 22.4792 19.4136 24.2918 18.3148 25.8335C17.2159 27.3752 15.6542 28.5768 13.8269 29.2864C11.9996 29.9959 9.98897 30.1816 8.04916 29.8199C6.10935 29.4581 4.32752 28.5652 2.929 27.2541C1.53047 25.943 0.578065 24.2725 0.192213 22.454C-0.193639 20.6354 0.00439388 18.7504 0.76127 17.0373C1.51815 15.3243 2.79987 13.8601 4.44436 12.83C6.08885 11.7998 8.02225 11.25 10.0001 11.25V15C8.81338 15 7.65334 15.3299 6.66664 15.948C5.67995 16.5661 4.91091 17.4446 4.45679 18.4724C4.00266 19.5002 3.88384 20.6312 4.11535 21.7224C4.34686 22.8135 4.91831 23.8158 5.75742 24.6025C6.59654 25.3891 7.66564 25.9249 8.82952 26.1419C9.99341 26.359 11.1998 26.2476 12.2962 25.8218C13.3925 25.3961 14.3296 24.6751 14.9889 23.7501C15.6482 22.8251 16.0001 21.7375 16.0001 20.625V0Z" fill="white"/>
</svg>
