<svg width="33" height="22" viewBox="0 0 33 22" fill="none" xmlns="http://www.w3.org/2000/svg">
<path d="M16.419 0.000488281H16.597C18.241 0.00636069 26.571 0.0650851 28.817 0.656241C29.4959 0.836658 30.1147 1.18832 30.6113 1.6761C31.1079 2.16387 31.465 2.77067 31.647 3.43585C31.849 4.17969 31.991 5.16429 32.087 6.18022L32.107 6.3838L32.151 6.89274L32.167 7.09631C32.297 8.88544 32.313 10.561 32.315 10.9271V11.0739C32.313 11.4536 32.295 13.2428 32.151 15.1063L32.135 15.3118L32.117 15.5154C32.017 16.6351 31.869 17.7469 31.647 18.5651C31.465 19.2303 31.1079 19.8371 30.6113 20.3249C30.1147 20.8127 29.4959 21.1643 28.817 21.3447C26.497 21.9555 17.679 21.9985 16.457 22.0005H16.173C15.555 22.0005 12.999 21.9887 10.319 21.8987L9.97896 21.887L9.80496 21.8791L9.46296 21.8654L9.12096 21.8517C6.90096 21.7558 4.78696 21.6012 3.81296 21.3428C3.13421 21.1625 2.51565 20.8112 2.01906 20.3237C1.52246 19.8363 1.1652 19.2299 0.982956 18.5651C0.760956 17.7489 0.612956 16.6351 0.512956 15.5154L0.496956 15.3099L0.480956 15.1063C0.381682 13.7799 0.326986 12.4507 0.316956 11.1209L0.316956 10.8801C0.320956 10.4592 0.336956 9.00485 0.444956 7.39972L0.458956 7.1981L0.464956 7.09631L0.480956 6.89274L0.524956 6.3838L0.544956 6.18022C0.640956 5.16429 0.782956 4.17773 0.984956 3.43585C1.1669 2.77067 1.52402 2.16387 2.02064 1.6761C2.51725 1.18832 3.13597 0.836658 3.81496 0.656241C4.78896 0.40177 6.90296 0.245172 9.12296 0.147298L9.46296 0.133596L9.80696 0.121852L9.97896 0.115979L10.321 0.102277C12.2244 0.0423852 14.1286 0.00910459 16.033 0.00244584L16.419 0.000488281ZM13.117 6.28397V15.7151L21.431 11.0015L13.117 6.28397Z" fill="white"/>
</svg>
